<svg width="33" height="32" viewBox="0 0 33 32" fill="none" xmlns="http://www.w3.org/2000/svg">
<path d="M30.1101 23.3898C30.0199 23.3054 29.9122 23.2419 29.7947 23.2039C29.6771 23.1658 29.5527 23.1542 29.4301 23.1698C27.0701 23.3898 24.7101 23.6398 22.3501 23.8798L10.4401 25.0898C8.09011 25.3298 5.75011 25.5598 3.44011 25.8098C2.90011 25.8598 2.75011 26.1698 2.98011 26.6498C3.21011 27.1298 3.50011 27.6498 3.71011 28.1898C3.77725 28.406 3.92094 28.5903 4.11424 28.7081C4.30754 28.8259 4.53718 28.8692 4.76011 28.8298C8.42011 28.7498 12.0801 28.6998 15.7601 28.6398C19.4401 28.5798 23.2501 28.5198 26.9901 28.4798C27.155 28.489 27.3191 28.4505 27.4628 28.369C27.6064 28.2874 27.7235 28.1662 27.8001 28.0198C28.5501 26.7098 29.3301 25.4098 30.0701 24.0998C30.1283 23.9916 30.162 23.8719 30.1689 23.7492C30.1759 23.6266 30.1558 23.5039 30.1101 23.3898Z" fill="#456DBB"/>
<path d="M15.1297 4.38985C17.1019 7.81563 18.1205 11.7071 18.0797 15.6599C18.009 18.2676 17.1553 20.7937 15.6297 22.9099C15.5468 23.084 15.4895 23.2693 15.4597 23.4599C15.6457 23.5485 15.845 23.6059 16.0497 23.6299L21.8797 23.0699L27.7997 22.5099C28.0797 22.5099 28.2997 22.4299 28.4197 22.1299C28.8415 21.1353 29.095 20.0776 29.1697 18.9999C29.2616 16.6251 28.5107 14.2943 27.0497 12.4199C23.9897 8.21985 19.7497 5.51985 15.2297 3.20985C15.1665 3.17657 15.0961 3.15918 15.0247 3.15918C14.9533 3.15918 14.8829 3.17657 14.8197 3.20985C14.7795 3.27499 14.7542 3.34821 14.7455 3.42426C14.7369 3.50032 14.7451 3.57735 14.7697 3.64985C14.8698 3.90573 14.9901 4.15318 15.1297 4.38985Z" fill="#456DBB"/>
<path d="M7.58006 24.62L12.3201 24.1C12.7956 24.0767 13.2616 23.9576 13.6901 23.75C13.6901 23.63 13.7501 23.08 13.7701 22.53L13.9301 18.84C13.9301 18.29 13.9901 17.39 14.0201 16.84L14.4401 7.59002C14.4401 7.04002 14.4401 6.44002 14.4401 6.38002C14.4284 6.35283 14.4106 6.32874 14.3881 6.30964C14.3655 6.29054 14.3388 6.27698 14.3101 6.27002C14.1386 6.5607 13.9914 6.86507 13.8701 7.18002L6.61006 23.8C6.39006 24.3 6.27006 24.72 6.35006 24.73C6.43006 24.74 7.03006 24.68 7.58006 24.62Z" fill="#456DBB"/>
</svg>
