<svg width="24" height="24" viewBox="0 0 24 24" fill="none" xmlns="http://www.w3.org/2000/svg">
<path d="M18.1099 12.4898V2.53977C18.1099 2.33462 18.0291 2.13772 17.885 1.99173C17.7409 1.84573 17.545 1.7624 17.3399 1.75977H7.11992C7.01795 1.75976 6.917 1.78 6.82292 1.81932C6.72885 1.85864 6.64351 1.91625 6.57188 1.98882C6.50025 2.06138 6.44374 2.14745 6.40564 2.24203C6.36753 2.33661 6.34859 2.43781 6.34992 2.53977V12.5398C6.34992 12.5398 6.34992 12.5398 6.34992 12.6098C6.43737 14.1073 7.09391 15.5149 8.18514 16.5442C9.27638 17.5736 10.7198 18.147 12.2199 18.147C13.7201 18.147 15.1635 17.5736 16.2547 16.5442C17.3459 15.5149 18.0025 14.1073 18.0899 12.6098C18.0899 12.6098 18.1099 12.5198 18.1099 12.4898Z" fill="white"/>
<path d="M16.28 20.6596C15.8159 20.0232 15.2081 19.5054 14.5061 19.1485C13.804 18.7915 13.0275 18.6055 12.24 18.6055C11.4524 18.6055 10.6759 18.7915 9.97385 19.1485C9.27179 19.5054 8.66399 20.0232 8.19995 20.6596V21.4696C8.19995 21.6685 8.27897 21.8592 8.41962 21.9999C8.56027 22.1405 8.75104 22.2196 8.94995 22.2196H15.57C15.7671 22.2169 15.9553 22.1367 16.0938 21.9964C16.2323 21.856 16.31 21.6667 16.31 21.4696V20.6596H16.28Z" fill="white"/>
<path d="M4.53991 16.59L4.40991 16.39C3.6825 15.1051 3.29366 13.6564 3.27991 12.18C3.275 12.1402 3.275 12.0998 3.27991 12.06C3.38682 10.7403 3.70768 9.44671 4.22991 8.23C4.37991 7.9 4.28991 7.57 4.03991 7.5H3.77991C3.15308 7.49999 2.55177 7.74832 2.10759 8.19062C1.66342 8.63292 1.41256 9.23317 1.40991 9.86C1.4593 10.2316 1.58412 10.5891 1.77672 10.9107C1.96933 11.2323 2.22564 11.5111 2.52991 11.73C2.59615 11.7701 2.65093 11.8266 2.68895 11.894C2.72697 11.9615 2.74694 12.0376 2.74694 12.115C2.74694 12.1924 2.72697 12.2685 2.68895 12.336C2.65093 12.4034 2.59615 12.4599 2.52991 12.5C2.23404 12.7192 1.98576 12.9962 1.80012 13.3142C1.61448 13.6322 1.49533 13.9846 1.44991 14.35C1.44991 14.9786 1.69961 15.5814 2.14407 16.0258C2.58853 16.4703 3.19135 16.72 3.81991 16.72H3.87991C3.94991 16.72 3.87991 16.94 3.61991 17.24C3.39467 17.5889 3.27328 17.9947 3.26991 18.41C3.26991 18.7212 3.33121 19.0294 3.45032 19.317C3.56942 19.6045 3.74399 19.8658 3.96407 20.0858C4.18414 20.3059 4.44541 20.4805 4.73295 20.5996C5.02049 20.7187 5.32868 20.78 5.63991 20.78C6.21057 20.7422 6.75084 20.5092 7.16991 20.12C7.23451 20.0685 7.28667 20.0031 7.32252 19.9286C7.35837 19.8542 7.37698 19.7726 7.37698 19.69C7.37698 19.6074 7.35837 19.5258 7.32252 19.4514C7.28667 19.3769 7.23451 19.3115 7.16991 19.26C6.16495 18.5062 5.27846 17.6062 4.53991 16.59Z" fill="white"/>
<path d="M21.92 12.5002C21.8538 12.4602 21.799 12.4037 21.761 12.3362C21.723 12.2688 21.703 12.1927 21.703 12.1152C21.703 12.0378 21.723 11.9617 21.761 11.8943C21.799 11.8268 21.8538 11.7703 21.92 11.7302C22.2243 11.5113 22.4806 11.2325 22.6732 10.9109C22.8658 10.5894 22.9907 10.2318 23.04 9.86023C23.04 9.23167 22.7903 8.62885 22.3459 8.18439C21.9014 7.73993 21.2986 7.49023 20.67 7.49023H20.42C20.17 7.56023 20.08 7.89023 20.22 8.22023C20.7612 9.43341 21.099 10.7274 21.22 12.0502C21.22 12.0502 21.22 12.1302 21.22 12.1702C21.2015 13.646 20.813 15.0935 20.09 16.3802L19.96 16.5802C19.2367 17.5928 18.3673 18.4926 17.38 19.2502C17.3123 19.2979 17.2562 19.3602 17.2159 19.4326C17.1756 19.505 17.1522 19.5855 17.1474 19.6682C17.1426 19.7508 17.1565 19.8335 17.1882 19.9101C17.2198 19.9866 17.2683 20.0551 17.33 20.1102C17.7491 20.4994 18.2894 20.7325 18.86 20.7702C19.1713 20.7702 19.4795 20.7089 19.767 20.5898C20.0545 20.4707 20.3158 20.2962 20.5359 20.0761C20.756 19.856 20.9305 19.5947 21.0496 19.3072C21.1687 19.0197 21.23 18.7115 21.23 18.4002C21.226 17.9836 21.1009 17.5771 20.87 17.2302C20.66 16.9302 20.55 16.7002 20.61 16.7102H20.68C21.2982 16.6972 21.8867 16.4431 22.3202 16.0022C22.7536 15.5613 22.9976 14.9685 23 14.3502C22.9546 13.9848 22.8355 13.6324 22.6498 13.3144C22.4642 12.9964 22.2159 12.7194 21.92 12.5002Z" fill="white"/>
</svg>
