<svg width="33" height="32" viewBox="0 0 33 32" fill="none" xmlns="http://www.w3.org/2000/svg">
<path d="M29.9096 26.8402L26.0396 23.0002C28.0197 20.4054 28.9459 17.1581 28.6328 13.9091C28.3197 10.6602 26.7904 7.64956 24.3512 5.4806C21.9121 3.31165 18.7433 2.14459 15.4801 2.21332C12.2168 2.28205 9.09999 3.58147 6.75432 5.8512C4.40865 8.12093 3.00739 11.1933 2.83135 14.4525C2.6553 17.7118 3.71748 20.9172 5.80502 23.4264C7.89256 25.9356 10.8512 27.5631 14.0881 27.983C17.3251 28.4028 20.601 27.5838 23.2596 25.6902L27.1696 29.6002C27.2626 29.694 27.3732 29.7684 27.495 29.8191C27.6169 29.8699 27.7476 29.896 27.8796 29.896C28.0116 29.896 28.1423 29.8699 28.2642 29.8191C28.3861 29.7684 28.4967 29.694 28.5896 29.6002L29.9096 28.2802C30.0064 28.1869 30.0834 28.0751 30.136 27.9514C30.1885 27.8277 30.2156 27.6947 30.2156 27.5602C30.2156 27.4258 30.1885 27.2928 30.136 27.1691C30.0834 27.0454 30.0064 26.9335 29.9096 26.8402ZM13.9096 10.7402C15.8296 7.74023 18.9096 6.36023 20.7996 7.57023C22.6896 8.78023 22.3996 11.9302 20.4996 14.9002C20.1823 15.4089 19.828 15.8935 19.4396 16.3502C19.1098 16.8335 18.6174 17.1821 18.052 17.3326C17.4867 17.4831 16.886 17.4255 16.3596 17.1702C15.9012 17.0015 15.4536 16.8045 15.0196 16.5802C11.8796 14.8102 12.0096 13.7102 13.9296 10.7402H13.9096ZM16.5696 20.5902C16.4142 20.9593 16.1865 21.2936 15.8999 21.5733C15.6133 21.853 15.2735 22.0725 14.9007 22.2188C14.5279 22.3652 14.1296 22.4354 13.7293 22.4253C13.3289 22.4152 12.9346 22.3251 12.5696 22.1602C12.2133 21.9704 11.899 21.7105 11.6455 21.3962C11.392 21.082 11.2045 20.7198 11.0943 20.3313C10.9841 19.9429 10.9535 19.5362 11.0043 19.1357C11.055 18.7351 11.1861 18.3489 11.3896 18.0002C12.1696 16.4202 12.3896 16.9402 14.4996 18.1302C16.6096 19.3202 17.3696 19.0002 16.5896 20.5902H16.5696Z" fill="#456DBB"/>
</svg>
