<svg width="33" height="32" viewBox="0 0 33 32" fill="none" xmlns="http://www.w3.org/2000/svg">
<path d="M26.7696 2.74016C20.0795 4.81047 12.9198 4.81047 6.22964 2.74016C6.11952 2.68409 5.99637 2.65862 5.87305 2.66641C5.74972 2.67421 5.63075 2.71498 5.52857 2.78446C5.42638 2.85395 5.34474 2.9496 5.29215 3.06142C5.23957 3.17324 5.21798 3.29714 5.22964 3.42016V18.4202C5.22964 20.8602 9.72964 28.8202 16.4096 29.2602H16.5296C23.2096 28.8202 27.7296 20.8602 27.7096 18.4202V3.42016C27.7159 3.30489 27.6931 3.1899 27.6434 3.08571C27.5937 2.98153 27.5186 2.89149 27.4251 2.82383C27.3315 2.75617 27.2225 2.71305 27.108 2.69844C26.9935 2.68382 26.8772 2.69816 26.7696 2.74016ZM12.0996 15.3302C11.7266 15.3979 11.3439 15.3913 10.9734 15.3107C10.603 15.2302 10.252 15.0773 9.9408 14.8608C9.62955 14.6443 9.36412 14.3685 9.15971 14.0492C8.9553 13.7299 8.81595 13.3734 8.74964 13.0002L8.68964 12.6802C8.68964 12.3402 9.12964 12.3002 9.59964 12.5902C10.2314 12.945 10.9623 13.082 11.6796 12.9802C12.3917 12.8321 13.033 12.448 13.4996 11.8902C13.8396 11.4602 14.2396 11.3602 14.3896 11.6602L14.4496 11.9802C14.5158 12.3545 14.5074 12.7382 14.4251 13.1092C14.3427 13.4803 14.1879 13.8315 13.9696 14.1427C13.7514 14.4539 13.4738 14.7189 13.1529 14.9227C12.832 15.1265 12.4741 15.2649 12.0996 15.3302ZM20.4996 22.6802C20.4296 22.9502 20.0996 22.8202 19.7696 22.3802C19.7696 22.3802 18.2696 20.4302 16.4696 20.4302C14.6696 20.4302 13.1696 22.3802 13.1696 22.3802C12.8396 22.8202 12.5096 22.9502 12.4396 22.6802V22.4102C12.4594 21.7732 12.6572 21.1545 13.0107 20.6242C13.3642 20.0939 13.8592 19.6734 14.4396 19.4102C15.06 19.0982 15.7453 18.9372 16.4396 18.9402C17.1153 18.9409 17.782 19.0947 18.3896 19.3902C18.9836 19.6437 19.4939 20.0597 19.8619 20.5905C20.2299 21.1212 20.4405 21.745 20.4696 22.3902L20.4996 22.6802ZM24.2496 13.0002C24.207 13.3935 24.084 13.7738 23.8883 14.1177C23.6926 14.4615 23.4285 14.7615 23.1121 14.9991C22.7958 15.2367 22.4341 15.4068 22.0493 15.4989C21.6646 15.591 21.265 15.6031 20.8754 15.5345C20.4858 15.4659 20.1144 15.3181 19.7843 15.1001C19.4541 14.8822 19.1722 14.5987 18.9561 14.2674C18.7399 13.936 18.5941 13.5639 18.5276 13.1739C18.4611 12.7839 18.4754 12.3844 18.5696 12.0002L18.6296 11.6802C18.7796 11.3802 19.1796 11.4802 19.5196 11.9102C19.9811 12.4642 20.6148 12.8479 21.3196 13.0002C22.037 13.102 22.7679 12.965 23.3996 12.6102C23.8696 12.3202 24.2796 12.3602 24.3096 12.7002L24.2496 13.0002ZM23.6596 20.0602C23.3944 20.0602 23.1401 19.9548 22.9525 19.7673C22.765 19.5797 22.6596 19.3254 22.6596 19.0602C22.7965 18.4553 23.0331 17.8774 23.3596 17.3502L23.6796 16.7802C23.6796 16.7802 23.7596 16.9102 23.8596 17.1002C24.2475 17.7162 24.5313 18.3919 24.6996 19.1002C24.6945 19.2315 24.6635 19.3606 24.6084 19.4799C24.5534 19.5993 24.4753 19.7066 24.3787 19.7958C24.2821 19.885 24.1689 19.9542 24.0455 19.9996C23.9221 20.0449 23.791 20.0655 23.6596 20.0602Z" fill="#456DBB"/>
</svg>
