<svg width="33" height="32" viewBox="0 0 33 32" fill="none" xmlns="http://www.w3.org/2000/svg">
<path d="M21.16 6.6001C17.97 6.6001 16.99 8.4801 16.99 8.4801C16.72 8.9901 16.28 8.9901 15.99 8.4801C15.99 8.4801 14.99 6.6001 11.82 6.6001C7.89001 6.6001 2.50001 15.0001 2.50001 15.0001C2.34929 15.2557 2.28179 15.5518 2.30688 15.8474C2.33196 16.1431 2.44839 16.4236 2.64001 16.6501C2.64001 16.6501 4.89001 19.1001 8.00001 22.3001C10.66 25.0401 15.29 25.3001 15.29 25.3001L16.34 25.3701H16.66L17.71 25.3001C17.71 25.3001 22.34 25.0001 25 22.3001C28.11 19.1001 30.36 16.6501 30.36 16.6501C30.5516 16.4236 30.6681 16.1431 30.6931 15.8474C30.7182 15.5518 30.6507 15.2557 30.5 15.0001C30.5 15.0001 25.11 6.6001 21.16 6.6001ZM16.5 17.0001C13.07 17.0001 10.19 16.5401 9.19001 15.9001C11.6473 15.7641 14.0909 15.4432 16.5 14.9401C18.9101 15.4298 21.3537 15.7373 23.81 15.8601C22.81 16.5001 19.93 17.0001 16.5 17.0001Z" fill="#456DBB"/>
</svg>
