<svg width="33" height="32" viewBox="0 0 33 32" fill="none" xmlns="http://www.w3.org/2000/svg">
<path d="M25.8098 23.2601C25.1428 22.3208 24.5382 21.3386 23.9998 20.3201C23.5198 19.2701 24.1898 17.1701 23.8998 16.5401C23.7698 16.2501 21.5698 13.4601 21.5698 13.2601C21.5698 13.0601 22.2098 10.3401 21.6398 9.7901C21.1346 9.14847 20.7114 8.4464 20.3798 7.7001C20.3798 7.5001 20.7898 5.9701 21.2298 6.5601C21.6698 7.1501 21.3298 8.1401 22.0898 8.6601C23.0685 9.37995 24.1292 9.98084 25.2498 10.4501C25.4298 10.3301 25.4898 9.7401 25.4398 9.4501C25.3898 9.1601 22.1198 4.1501 21.4398 3.7801C20.7598 3.4101 18.8598 2.7801 18.2898 3.1501C16.5328 4.62489 14.8633 6.2009 13.2898 7.8701C12.9898 8.4001 13.0998 11.2301 12.4298 12.2801C11.7598 13.3301 9.37983 15.9101 9.09983 16.5401C8.81983 17.1701 9.47983 19.2701 8.99983 20.3201C8.46146 21.3386 7.85683 22.3208 7.18983 23.2601C7.18983 23.2601 2.78983 22.4201 2.49983 25.1601C2.22983 27.7301 13.6498 29.2701 16.4998 29.0001C19.3498 29.2601 30.7698 27.7201 30.4998 25.1501C30.2098 22.4201 25.8098 23.2601 25.8098 23.2601ZM17.3498 17.6801C18.209 16.9072 19.1212 16.1955 20.0798 15.5501C20.5298 15.4001 21.0098 16.0801 20.2598 17.2401C20.0355 17.6332 19.6949 17.9472 19.2848 18.1388C18.8747 18.3304 18.4153 18.3903 17.9698 18.3101C17.2198 18.3101 17.3498 17.6801 17.3498 17.6801ZM13.2798 15.5501C14.2414 16.1958 15.1569 16.9075 16.0198 17.6801C16.0198 17.6801 16.1498 18.3101 15.3998 18.3101C14.9543 18.3903 14.495 18.3304 14.0849 18.1388C13.6748 17.9472 13.3342 17.6332 13.1098 17.2401C12.3598 16.0801 12.8398 15.4001 13.2798 15.5501ZM22.1098 21.5501C21.5398 21.7001 20.6598 21.2601 20.3498 21.7501C20.0398 22.2401 20.3498 23.1501 19.1198 23.2501C17.8898 23.3501 17.8798 23.3501 17.2198 24.1701C16.5598 24.9901 16.1598 23.0001 15.5898 23.1001C15.0198 23.2001 14.1398 23.7301 13.9198 23.4401C13.6998 23.1501 13.0798 21.6001 12.5898 21.7001C12.0998 21.8001 11.4498 21.8401 11.4898 21.1201C11.9272 21.0791 12.3575 20.9816 12.7698 20.8301C13.1198 20.6301 13.5198 20.5801 14.0898 21.1201C14.6598 21.6601 14.7098 21.4101 15.4998 21.1201C16.2898 20.8301 16.2098 21.4601 16.7398 21.4601C17.2698 21.4601 17.5698 20.6801 17.9698 20.8301C18.3698 20.9801 18.7598 21.5501 19.1998 21.3101C19.6398 21.0701 20.3898 20.1001 20.6598 20.3901C21.0312 20.699 21.4969 20.8719 21.9798 20.8801C22.3798 20.8801 22.6798 21.4101 22.1098 21.5501Z" fill="#456DBB"/>
</svg>
