<svg width="33" height="32" viewBox="0 0 33 32" fill="none" xmlns="http://www.w3.org/2000/svg">
<path d="M28.0403 27.1002L21.9303 20.1002C21.5398 19.6009 21.3128 18.9932 21.2803 18.3602V8.46016C21.2803 5.60016 17.2803 2.69016 17.2803 2.69016C17.0445 2.52936 16.7657 2.44336 16.4803 2.44336C16.1949 2.44336 15.9161 2.52936 15.6803 2.69016C15.6803 2.69016 11.6803 5.60016 11.6803 8.46016V18.3802C11.6479 19.0132 11.4209 19.6209 11.0303 20.1202L4.92033 27.1202C4.56033 27.5302 4.71033 27.8702 5.26033 27.8702H11.1703C12.7079 28.9873 14.5597 29.589 16.4603 29.589C18.3609 29.589 20.2127 28.9873 21.7503 27.8702H27.7003C28.2503 27.8502 28.4003 27.5102 28.0403 27.1002ZM16.5003 7.51016C16.8959 7.51016 17.2826 7.62746 17.6115 7.84722C17.9404 8.06698 18.1967 8.37934 18.3481 8.74479C18.4995 9.11024 18.5391 9.51238 18.4619 9.90034C18.3847 10.2883 18.1943 10.6447 17.9145 10.9244C17.6348 11.2041 17.2785 11.3946 16.8905 11.4717C16.5026 11.5489 16.1004 11.5093 15.735 11.3579C15.3695 11.2065 15.0572 10.9502 14.8374 10.6213C14.6176 10.2924 14.5003 9.90572 14.5003 9.51016C14.5003 8.97973 14.711 8.47102 15.0861 8.09594C15.4612 7.72087 15.9699 7.51016 16.5003 7.51016Z" fill="#456DBB"/>
</svg>
