<svg width="33" height="32" viewBox="0 0 33 32" fill="none" xmlns="http://www.w3.org/2000/svg">
<path d="M24.6504 23.2199C24.5921 22.994 24.4641 22.7923 24.2846 22.6433C24.105 22.4943 23.8832 22.4056 23.6504 22.3899H22.9504C24.8088 21.0368 26.1913 19.1304 26.9 16.9435C27.6087 14.7567 27.6072 12.4017 26.8957 10.2158C26.1842 8.02988 24.7992 6.12517 22.9391 4.77446C21.079 3.42374 18.8392 2.69629 16.5404 2.69629C14.2416 2.69629 12.0018 3.42374 10.1417 4.77446C8.28156 6.12517 6.89659 8.02988 6.18511 10.2158C5.47363 12.4017 5.47212 14.7567 6.1808 16.9435C6.88949 19.1304 8.27202 21.0368 10.1304 22.3899H9.43039C9.19763 22.4056 8.97574 22.4943 8.79623 22.6433C8.61671 22.7923 8.48871 22.994 8.43039 23.2199L7.20039 28.4599C7.17348 28.5604 7.17068 28.6657 7.19223 28.7675C7.21377 28.8692 7.25904 28.9644 7.32435 29.0453C7.38966 29.1262 7.47316 29.1905 7.56805 29.233C7.66295 29.2755 7.76654 29.295 7.87039 29.2899H25.1304C25.2342 29.295 25.3378 29.2755 25.4327 29.233C25.5276 29.1905 25.6111 29.1262 25.6764 29.0453C25.7417 28.9644 25.787 28.8692 25.8086 28.7675C25.8301 28.6657 25.8273 28.5604 25.8004 28.4599L24.6504 23.2199ZM9.18039 8.81992C9.17841 8.45361 9.28523 8.09495 9.4873 7.78941C9.68937 7.48387 9.97761 7.24519 10.3155 7.10363C10.6533 6.96208 11.0256 6.92401 11.3851 6.99426C11.7447 7.06451 12.0752 7.23991 12.335 7.49824C12.5947 7.75656 12.7719 8.08618 12.8441 8.44531C12.9163 8.80445 12.8802 9.17693 12.7405 9.51556C12.6008 9.85419 12.3637 10.1437 12.0592 10.3474C11.7548 10.5512 11.3967 10.6599 11.0304 10.6599C10.5415 10.6599 10.0724 10.4664 9.72577 10.1216C9.37911 9.77683 9.18303 9.30884 9.18039 8.81992Z" fill="#456DBB"/>
</svg>
