<svg width="33" height="32" viewBox="0 0 33 32" fill="none" xmlns="http://www.w3.org/2000/svg">
<path d="M26.2697 15.3202C27.8603 13.5938 28.7291 11.3236 28.6975 8.97635C28.6659 6.6291 27.7363 4.38315 26.0997 2.7002L18.0997 10.7002L17.3897 11.4102L16.1997 12.6002L15.5397 13.2602L15.1197 13.6802L3.97974 24.8202C3.87662 24.9139 3.79423 25.0282 3.73785 25.1556C3.68147 25.283 3.65234 25.4208 3.65234 25.5602C3.65234 25.6995 3.68147 25.8374 3.73785 25.9648C3.79423 26.0922 3.87662 26.2065 3.97974 26.3002L6.66974 29.0002C6.8677 29.1932 7.13325 29.3012 7.40974 29.3012C7.68623 29.3012 7.95177 29.1932 8.14974 29.0002L15.2897 21.8602L16.7797 23.3502C16.8735 23.4533 16.9877 23.5357 17.1151 23.5921C17.2426 23.6485 17.3804 23.6776 17.5197 23.6776C17.6591 23.6776 17.7969 23.6485 17.9243 23.5921C18.0518 23.5357 18.166 23.4533 18.2597 23.3502L18.6797 22.9302L20.9097 20.7002L22.5697 19.0002L23.7697 17.8002L26.2797 15.2902L26.2697 15.3202Z" fill="#456DBB"/>
<path d="M27.1095 17.0898C26.8195 17.0898 24.8995 20.9298 24.8995 22.1498C24.8791 22.4532 24.9213 22.7576 25.0234 23.044C25.1254 23.3305 25.2853 23.5929 25.493 23.815C25.7006 24.0371 25.9517 24.2142 26.2307 24.3352C26.5096 24.4563 26.8105 24.5188 27.1145 24.5188C27.4186 24.5188 27.7194 24.4563 27.9984 24.3352C28.2773 24.2142 28.5284 24.0371 28.7361 23.815C28.9438 23.5929 29.1036 23.3305 29.2057 23.044C29.3078 22.7576 29.3499 22.4532 29.3295 22.1498C29.3295 20.9298 27.4095 17.0898 27.1095 17.0898Z" fill="#456DBB"/>
</svg>
