<svg width="33" height="32" viewBox="0 0 33 32" fill="none" xmlns="http://www.w3.org/2000/svg">
<path d="M27.7402 5.9999V5.4899C27.7262 5.19585 27.623 4.91302 27.4444 4.67902C27.2658 4.44502 27.0202 4.27093 26.7402 4.1799C20.0515 2.10019 12.8889 2.10019 6.2002 4.1799C5.92024 4.27093 5.67461 4.44502 5.49599 4.67902C5.31736 4.91302 5.21419 5.19585 5.2002 5.4899V18.4899C5.2002 21.0599 9.7002 28.9999 16.3802 29.3399H16.5002C23.1802 28.9999 27.7002 21.0599 27.6802 18.4899V5.9999H27.7402ZM10.8202 11.2199C11.5733 11.0859 12.3487 11.2559 12.9767 11.6926C13.6046 12.1294 14.0338 12.7973 14.1702 13.5499L14.2302 13.8699C14.2302 14.2099 13.7902 14.2499 13.3202 13.9599C12.6885 13.6051 11.9575 13.468 11.2402 13.5699C10.537 13.7264 9.90469 14.1093 9.4402 14.6599C9.1002 15.0899 8.7002 15.1999 8.5502 14.8899L8.5002 14.5699C8.43237 14.1976 8.4386 13.8156 8.51851 13.4456C8.59842 13.0757 8.75045 12.7252 8.96591 12.4141C9.18137 12.103 9.45604 11.8374 9.77421 11.6325C10.0924 11.4275 10.4478 11.2874 10.8202 11.2199ZM24.5002 14.5699L24.4502 14.8899C24.3002 15.1999 23.9002 15.0899 23.5602 14.6599C23.0957 14.1093 22.4633 13.7264 21.7602 13.5699C21.0428 13.468 20.3119 13.6051 19.6802 13.9599C19.2102 14.2499 18.8002 14.2099 18.7702 13.8699L18.8302 13.5499C18.8859 13.1686 19.0176 12.8024 19.2175 12.4729C19.4173 12.1435 19.6812 11.8574 19.9936 11.6318C20.306 11.4062 20.6604 11.2455 21.036 11.1594C21.4116 11.0732 21.8006 11.0633 22.1801 11.1303C22.5596 11.1972 22.9218 11.3396 23.2452 11.549C23.5687 11.7585 23.8468 12.0307 24.0632 12.3496C24.2795 12.6684 24.4297 13.0275 24.5047 13.4054C24.5798 13.7834 24.5783 14.1726 24.5002 14.5499V14.5699ZM20.7602 18.9999C20.6758 20.0491 20.1813 21.0227 19.3838 21.7097C18.5864 22.3967 17.5503 22.7417 16.5002 22.6699C15.4501 22.7417 14.414 22.3967 13.6165 21.7097C12.8191 21.0227 12.3246 20.0491 12.2402 18.9999V18.7199C12.3102 18.4299 12.6502 18.5499 12.9802 18.9899C12.9802 18.9899 14.5902 21.0999 16.5002 21.0999C18.4102 21.0999 20.0202 18.9999 20.0202 18.9999C20.3502 18.5599 20.6902 18.4399 20.7602 18.7299V18.9999Z" fill="#456DBB"/>
</svg>
