<svg width="33" height="32" viewBox="0 0 33 32" fill="none" xmlns="http://www.w3.org/2000/svg">
<path d="M22.2399 3.79C21.3481 3.94747 20.4715 4.18168 19.6199 4.49L22.6899 12.31L16.7599 16.31L18.0399 20.38L17.9399 20.45L12.4099 15L17.8499 11.13C17.3099 9.9 16.8499 8.72 16.2899 7.64C15.4881 6.01051 14.0845 4.7564 12.3753 4.14252C10.6661 3.52864 8.78527 3.60303 7.12993 4.35C3.70993 5.92 1.88993 10 2.76993 14.13C3.41299 16.775 4.80121 19.1801 6.76993 21.06C9.11064 23.3259 11.685 25.3371 14.4499 27.06C15.1199 27.5 15.7999 28.25 16.4499 28.24C17.0999 28.23 17.8399 27.48 18.5299 27.05L18.6299 26.98C21.6276 25.115 24.3791 22.8808 26.8199 20.33C28.3201 18.738 29.4263 16.8167 30.0499 14.72C31.7199 8.82 27.7399 3.23 22.2399 3.79Z" fill="#456DBB"/>
</svg>
