<svg width="33" height="32" viewBox="0 0 33 32" fill="none" xmlns="http://www.w3.org/2000/svg">
<path d="M30.0796 19.2202C30.0382 19.1591 29.9833 19.1083 29.9191 19.0719C29.8549 19.0355 29.7832 19.0144 29.7096 19.0102C28.2696 19.2002 26.8396 19.4002 25.4096 19.6502C24.497 19.7824 23.6199 20.0951 22.8296 20.5702C20.938 21.7389 18.7884 22.4257 16.5696 22.5702C15.2723 22.6828 13.9737 22.3705 12.8696 21.6802C12.104 21.2158 11.3127 20.7951 10.4996 20.4202C10.0696 20.2302 9.57958 20.1502 9.12958 19.9902C8.03865 19.5683 7.04511 18.9287 6.20958 18.1102C5.30958 17.2802 4.45958 16.3802 3.59958 15.5102C3.45958 15.3702 3.32958 15.2002 3.10958 15.3102C2.88958 15.4202 2.95958 15.6502 3.00958 15.8302C3.05958 16.0102 3.16958 16.4102 3.25958 16.6902C3.78406 18.2911 4.4535 19.8409 5.25958 21.3202C6.3715 23.4066 7.83263 25.2871 9.57958 26.8802C10.6305 27.8856 11.8856 28.653 13.2596 29.1302C13.6596 29.2602 14.0696 29.3602 14.4996 29.4602C14.5733 29.4204 14.6558 29.3997 14.7396 29.4002H17.0496C17.0948 29.3615 17.1505 29.3371 17.2096 29.3302C17.6496 29.3302 18.0896 29.2002 18.5196 29.1302C19.3572 28.9826 20.1668 28.706 20.9196 28.3102C22.3051 27.535 23.5222 26.4913 24.4996 25.2402C25.3696 24.1702 26.2296 23.1002 27.1396 22.0602C27.6165 21.5466 28.1241 21.0624 28.6596 20.6102C29.0896 20.2402 29.5596 19.9202 29.9996 19.5502C30.0296 19.4802 30.1196 19.2702 30.0796 19.2202Z" fill="#456DBB"/>
<path d="M9.05956 18.2099C9.41956 18.4399 9.81956 18.6099 10.2096 18.8099V18.7099C9.52683 17.3719 9.06102 15.934 8.82956 14.4499C8.62464 13.1704 8.80206 11.8589 9.33956 10.6799C9.79062 9.71887 10.4413 8.86505 11.2483 8.17531C12.0553 7.48558 13 6.97577 14.0196 6.67986C15.7196 6.09986 17.4196 5.55986 19.1196 5.00986C19.4096 4.90986 19.4596 4.77986 19.2696 4.52986C19.0302 4.20051 18.7625 3.89268 18.4696 3.60986C18.1922 3.29975 17.8534 3.0507 17.4747 2.87854C17.096 2.70639 16.6856 2.61489 16.2696 2.60986C15.389 2.66947 14.5136 2.78976 13.6496 2.96986C12.1639 3.28177 10.7157 3.75108 9.32956 4.36986C8.33017 4.74768 7.42074 5.33012 6.65955 6.07986C5.29457 7.62086 4.47257 9.56695 4.31956 11.6199C4.1996 12.8276 4.55871 14.0342 5.31956 14.9799C6.359 16.2754 7.62649 17.3701 9.05956 18.2099Z" fill="#456DBB"/>
<path d="M18.3203 6.81002C18.3203 6.88002 18.4103 6.98002 18.4903 7.03002C18.8103 7.24002 19.1503 7.43002 19.4903 7.64002C20.2886 8.11705 20.945 8.7987 21.3916 9.61446C21.8381 10.4302 22.0586 11.3505 22.0303 12.28C22.0376 13.2836 21.9708 14.2863 21.8303 15.28C21.6292 16.5034 21.2378 17.6877 20.6703 18.79C20.4503 19.21 20.1703 19.59 19.9403 19.99C19.9035 20.0786 19.8864 20.1742 19.8903 20.27C19.9867 20.2799 20.0839 20.2799 20.1803 20.27C20.2472 20.2638 20.312 20.2434 20.3703 20.21C20.9203 19.91 21.4503 19.59 22.0103 19.32C22.8603 18.91 23.7003 18.5 24.5803 18.17C25.4603 17.84 26.3503 17.62 27.2303 17.34C27.4902 17.2742 27.7316 17.1499 27.9361 16.9766C28.1406 16.8033 28.3028 16.5856 28.4103 16.34C28.687 15.691 28.787 14.9802 28.7003 14.28C28.5003 12.87 28.2503 11.48 28.0403 10.08C27.9723 9.61461 27.8038 9.16958 27.5465 8.77585C27.2892 8.38212 26.9493 8.04913 26.5503 7.80002L25.5003 7.10002C24.4937 6.3814 23.2871 5.99667 22.0503 6.00002C20.8407 5.99755 19.6397 6.20391 18.5003 6.61002C18.4583 6.62936 18.4206 6.65707 18.3897 6.69146C18.3587 6.72585 18.3351 6.76619 18.3203 6.81002Z" fill="#456DBB"/>
<path d="M11.5698 10C11.4798 10.06 11.3498 10.1 11.2898 10.19C10.5224 11.3196 10.1691 12.6797 10.2898 14.04C10.3967 15.5401 10.9196 16.9806 11.7998 18.2C12.2667 18.8674 12.8774 19.4215 13.5871 19.8213C14.2967 20.2211 15.087 20.4565 15.8998 20.51C16.5369 20.5467 17.1677 20.367 17.6898 20C18.5021 19.3482 19.1267 18.4924 19.4998 17.52C19.6698 17.13 19.8198 16.74 19.9598 16.34C19.9769 16.2315 19.9518 16.1206 19.8898 16.03C19.8898 16.03 19.7098 16.03 19.6298 16.03C19.5048 16.0833 19.3843 16.1469 19.2698 16.22C18.3187 16.7479 17.2889 17.1193 16.2198 17.32C15.5366 17.4706 14.8218 17.3563 14.2198 17C13.5108 16.5225 12.915 15.8954 12.4745 15.1629C12.0339 14.4303 11.7592 13.6101 11.6698 12.76C11.6198 11.9474 11.6198 11.1326 11.6698 10.32C11.651 10.2093 11.6173 10.1017 11.5698 10Z" fill="#456DBB"/>
<path d="M16.4202 14.5101C16.2902 14.5701 16.0902 14.6901 16.1002 14.7701C16.1352 14.9174 16.2245 15.0459 16.3502 15.1301C16.6476 15.3655 17.0117 15.5009 17.3906 15.5171C17.7696 15.5332 18.1439 15.4293 18.4602 15.2201C18.953 14.9404 19.3759 14.5526 19.6973 14.086C20.0187 13.6193 20.2302 13.0859 20.3158 12.5258C20.4015 11.9657 20.3591 11.3935 20.1919 10.8521C20.0246 10.3108 19.7369 9.81432 19.3502 9.40012C18.9782 8.94225 18.5129 8.56895 17.9852 8.30512C17.4576 8.04129 16.8797 7.893 16.2902 7.87012C15.7561 7.8728 15.2248 7.94679 14.7102 8.09012C14.3539 8.17279 14.021 8.33551 13.7368 8.56595C13.4527 8.79639 13.2247 9.08849 13.0702 9.42012C13.0178 9.58505 12.9908 9.75704 12.9902 9.93012C13.1638 9.91233 13.3348 9.87544 13.5002 9.82012C14.2603 9.42558 15.1171 9.25562 15.9702 9.33012C16.1402 9.33012 17.2802 9.72012 17.4802 10.0601C17.7737 10.5614 17.9894 11.1042 18.1202 11.6701C18.221 12.2683 18.1052 12.8829 17.7936 13.4034C17.482 13.9239 16.9951 14.3163 16.4202 14.5101Z" fill="#456DBB"/>
<path d="M14.14 15.1502C14.5174 15.6199 15.0553 15.9334 15.65 16.0302L15.34 15.5502C14.929 15.0469 14.6414 14.4544 14.5 13.8202C14.4693 13.6292 14.4841 13.4337 14.5432 13.2495C14.6023 13.0654 14.704 12.8977 14.84 12.7602C14.8999 12.8531 14.9534 12.95 15 13.0502C15.0294 13.1498 15.0805 13.2416 15.1498 13.319C15.219 13.3963 15.3046 13.4573 15.4003 13.4975C15.496 13.5377 15.5995 13.5561 15.7032 13.5514C15.8069 13.5467 15.9083 13.5189 16 13.4702C16.1911 13.3804 16.3599 13.2491 16.4938 13.0858C16.6278 12.9225 16.7237 12.7314 16.7745 12.5264C16.8252 12.3214 16.8296 12.1076 16.7873 11.9007C16.745 11.6938 16.6571 11.4989 16.53 11.3302C16.2145 10.9244 15.76 10.6498 15.254 10.5593C14.7481 10.4689 14.2265 10.5689 13.79 10.8402C13.5036 10.9802 13.2674 11.2052 13.1135 11.4843C12.9596 11.7635 12.8955 12.0833 12.93 12.4002C12.9948 13.4313 13.4236 14.4058 14.14 15.1502Z" fill="#456DBB"/>
</svg>
