<svg width="33" height="32" viewBox="0 0 33 32" fill="none" xmlns="http://www.w3.org/2000/svg">
<path d="M29.9103 15.2398C29.9103 15.0398 29.8303 14.8398 29.7803 14.6498C29.7803 14.6498 29.7803 14.5998 29.7803 14.5698C29.7597 14.4912 29.7329 14.4143 29.7003 14.3398C29.6781 14.2584 29.6514 14.1783 29.6203 14.0998L29.5003 13.9398C29.4728 13.8884 29.4494 13.8349 29.4303 13.7798L29.3403 13.5898V13.5198L29.2403 13.3398L29.1503 13.1698L29.0903 13.0598C29.0535 13.0122 29.0201 12.9621 28.9903 12.9098C28.987 12.8866 28.987 12.8631 28.9903 12.8398C28.9538 12.799 28.9204 12.7555 28.8903 12.7098C28.8718 12.6734 28.8482 12.6397 28.8203 12.6098L28.7703 12.5398C28.2758 11.9207 27.6493 11.4198 26.9365 11.0738C26.2237 10.7278 25.4426 10.5454 24.6503 10.5398V9.70984C24.6551 9.66999 24.6551 9.6297 24.6503 9.58984C24.6503 7.46811 23.8074 5.43328 22.3071 3.93299C20.8068 2.4327 18.772 1.58984 16.6503 1.58984C14.5285 1.58984 12.4937 2.4327 10.9934 3.93299C9.49313 5.43328 8.65027 7.46811 8.65027 9.58984C8.64546 9.6297 8.64546 9.66999 8.65027 9.70984V10.5498H8.50027C7.70832 10.5575 6.92793 10.7408 6.21545 11.0867C5.50296 11.4326 4.87616 11.9323 4.38027 12.5498C4.38027 12.5498 4.27027 12.6898 4.11027 12.9298L3.94027 12.9998C3.81471 13.1909 3.70437 13.3915 3.61027 13.5998C3.55027 13.7198 3.50027 13.8398 3.44027 13.9698C3.33266 14.2429 3.24574 14.5237 3.18027 14.8098C3.08498 15.1995 3.03465 15.5987 3.03027 15.9998C3.03027 16.2398 3.03027 16.4798 3.03027 16.6998C3.09694 17.276 3.25916 17.837 3.51027 18.3598C3.66343 18.3495 3.81711 18.3495 3.97027 18.3598C4.82427 18.3598 5.64329 18.6991 6.24716 19.303C6.85102 19.9068 7.19027 20.7258 7.19027 21.5798C7.19027 21.5798 7.19027 21.8398 7.19027 22.0798C7.19658 22.1697 7.19658 22.26 7.19027 22.3498C7.19027 22.4898 7.19027 22.6298 7.19027 22.7398C7.17773 23.2497 7.26962 23.7568 7.46027 24.2298C7.63729 24.6231 7.90865 24.9666 8.25027 25.2298C8.62811 25.5281 9.05905 25.752 9.52027 25.8898C10.0842 26.0606 10.6637 26.1745 11.2503 26.2298L11.7003 26.3098L11.8303 26.3598L12.0603 26.4398L12.2003 26.5098L12.3603 26.5998C12.4023 26.6307 12.4424 26.6641 12.4803 26.6998L12.6003 26.7998L12.7103 26.9198L12.8003 27.0298L12.9003 27.1698L12.9603 27.2598L13.0603 27.4498V27.5098L13.1803 27.7398C13.4137 28.4256 13.8638 29.0169 14.4626 29.4246C15.0615 29.8322 15.7767 30.0341 16.5003 29.9998C17.191 29.997 17.8639 29.7801 18.4263 29.3789C18.9886 28.9777 19.4128 28.4121 19.6403 27.7598L19.7603 27.5298V27.4698L19.8603 27.2798L19.9203 27.1898L20.0203 27.0498L20.1103 26.9398L20.2203 26.8198L20.3403 26.7198C20.3782 26.6841 20.4183 26.6507 20.4603 26.6198L20.6203 26.5298L20.7603 26.4598L20.9903 26.3798L21.1203 26.3298L21.5703 26.2498C22.1568 26.1945 22.7364 26.0806 23.3003 25.9098C23.7615 25.772 24.1924 25.5481 24.5703 25.2498C24.9119 24.9866 25.1833 24.6431 25.3603 24.2498C25.5509 23.7768 25.6428 23.2697 25.6303 22.7598C25.6185 22.5734 25.6185 22.3863 25.6303 22.1998C25.6303 21.9298 25.6803 21.6798 25.6803 21.6298C25.6803 20.7758 26.0195 19.9568 26.6234 19.353C27.2273 18.7491 28.0463 18.4098 28.9003 18.4098C29.0534 18.3995 29.2071 18.3995 29.3603 18.4098C29.7469 17.6644 29.9557 16.8395 29.9703 15.9998C29.9699 15.7453 29.9499 15.4912 29.9103 15.2398ZM19.3003 8.31984C19.4715 8.31891 19.6411 8.35404 19.7979 8.42296C19.9546 8.49188 20.0952 8.59303 20.2103 8.71984C20.4339 8.95037 20.5594 9.25867 20.5603 9.57984C20.5603 9.74531 20.5277 9.90915 20.4644 10.062C20.401 10.2149 20.3082 10.3538 20.1912 10.4708C20.0742 10.5878 19.9353 10.6806 19.7825 10.7439C19.6296 10.8073 19.4657 10.8398 19.3003 10.8398C19.1348 10.8398 18.971 10.8073 18.8181 10.7439C18.6652 10.6806 18.5263 10.5878 18.4093 10.4708C18.2923 10.3538 18.1995 10.2149 18.1362 10.062C18.0729 9.90915 18.0403 9.74531 18.0403 9.57984C18.0403 9.24567 18.173 8.92519 18.4093 8.68889C18.6456 8.45259 18.9661 8.31984 19.3003 8.31984ZM13.6403 8.31984C13.9744 8.31984 14.2949 8.45259 14.5312 8.68889C14.7675 8.92519 14.9003 9.24567 14.9003 9.57984C14.9003 9.91402 14.7675 10.2345 14.5312 10.4708C14.2949 10.7071 13.9744 10.8398 13.6403 10.8398C13.3061 10.8398 12.9856 10.7071 12.7493 10.4708C12.513 10.2345 12.3803 9.91402 12.3803 9.57984C12.3812 9.25867 12.5066 8.95037 12.7303 8.71984C12.8454 8.59303 12.9859 8.49188 13.1427 8.42296C13.2995 8.35404 13.469 8.31891 13.6403 8.31984Z" fill="#456DBB"/>
</svg>
