<svg width="33" height="32" viewBox="0 0 33 32" fill="none" xmlns="http://www.w3.org/2000/svg">
<path d="M26.57 3.20998C26.5223 3.1009 26.4583 2.99973 26.38 2.90998L24.5 5.20998L25.31 5.87998C25.4197 5.94826 25.5136 6.03912 25.5855 6.1465C25.6573 6.25389 25.7055 6.37534 25.7267 6.50278C25.748 6.63023 25.7419 6.76074 25.7088 6.88563C25.6757 7.01052 25.6164 7.12693 25.5348 7.22712C25.4532 7.32731 25.3512 7.40898 25.2356 7.46669C25.12 7.52441 24.9935 7.55684 24.8643 7.56184C24.7352 7.56684 24.6066 7.54429 24.4868 7.49569C24.3671 7.44709 24.2591 7.37356 24.17 7.27998L23.35 6.60998L22.42 7.74998L23.24 8.41998C23.4301 8.57672 23.5557 8.79812 23.5926 9.04172C23.6295 9.28532 23.5752 9.53396 23.44 9.73998C23.2646 9.91847 23.0286 10.0247 22.7787 10.0376C22.5287 10.0506 22.283 9.96937 22.09 9.80998L21.5 9.34998L21.25 9.14998L21.12 9.29998L20.46 10.11C20.3872 10.2032 20.2966 10.2812 20.1936 10.3394C20.0906 10.3977 19.9771 10.4351 19.8596 10.4495C19.7422 10.4639 19.623 10.455 19.509 10.4233C19.395 10.3917 19.2883 10.3379 19.195 10.265C19.1018 10.1921 19.0238 10.1016 18.9656 9.99855C18.9073 9.89553 18.8699 9.78205 18.8555 9.66458C18.8412 9.54712 18.85 9.42797 18.8817 9.31393C18.9134 9.1999 18.9672 9.09322 19.04 8.99998C19.04 8.99998 19.04 8.99998 19.04 8.91998L19.83 7.91998L18.83 7.09998C18.6373 6.94285 18.51 6.71954 18.473 6.47363C18.4361 6.22772 18.492 5.97685 18.63 5.76998C18.8055 5.59149 19.0415 5.48528 19.2914 5.47232C19.5414 5.45936 19.7871 5.54059 19.98 5.69998L20.98 6.51998L21.91 5.37998L20.91 4.55998C20.8084 4.48673 20.7224 4.39389 20.6571 4.28692C20.5918 4.17995 20.5486 4.06101 20.53 3.93709C20.5113 3.81318 20.5177 3.68679 20.5486 3.56535C20.5795 3.44392 20.6344 3.32989 20.71 3.22998C20.8855 3.05149 21.1215 2.94528 21.3714 2.93232C21.6214 2.91936 21.8671 3.00059 22.06 3.15998L23.06 3.97998L24.29 2.47998H7.29004C7.02482 2.47998 6.77047 2.58534 6.58293 2.77287C6.3954 2.96041 6.29004 3.21476 6.29004 3.47998V17C6.29004 18.75 7.57004 21.52 9.77004 23.67V28.42C9.77004 28.6852 9.8754 28.9396 10.0629 29.1271C10.2505 29.3146 10.5048 29.42 10.77 29.42H22.16C22.4253 29.42 22.6796 29.3146 22.8671 29.1271C23.0547 28.9396 23.16 28.6852 23.16 28.42V23.69C25.36 21.54 26.65 18.77 26.64 17.02V3.55998C26.6379 3.44006 26.6142 3.32151 26.57 3.20998ZM21.29 15.36H21.61C22.16 15.36 22.61 15.44 22.61 15.54V15.64C22.6199 15.7698 22.6199 15.9002 22.61 16.03C22.5167 16.5492 22.2446 17.0194 21.841 17.3591C21.4373 17.6988 20.9276 17.8866 20.4 17.89C19.9145 17.8894 19.4423 17.7312 19.0545 17.439C18.6668 17.1468 18.3844 16.7365 18.25 16.27L18.17 16C18.1601 15.8702 18.1601 15.7398 18.17 15.61V15.51C18.17 15.43 18.49 15.37 18.89 15.34H21.32L21.29 15.36ZM10.7 15.64V15.54C10.7 15.47 10.98 15.4 11.35 15.37H14.17C14.72 15.37 15.17 15.45 15.17 15.55V15.65C15.1799 15.7798 15.1799 15.9102 15.17 16.04C15.1493 16.1425 15.1192 16.2429 15.08 16.34C14.92 16.8147 14.6061 17.2224 14.1882 17.4985C13.7702 17.7747 13.272 17.9034 12.7726 17.8644C12.2732 17.8253 11.8011 17.6208 11.4311 17.283C11.0611 16.9453 10.8144 16.4938 10.73 16C10.7116 15.8808 10.7015 15.7605 10.7 15.64ZM19.4 26.35H13.6C13.4066 26.3487 13.2176 26.2914 13.0561 26.1849C12.8946 26.0784 12.7674 25.9273 12.69 25.75C12.6388 25.6298 12.6116 25.5007 12.61 25.37V23.77C12.61 23.5048 12.7154 23.2504 12.9029 23.0629C13.0905 22.8753 13.3448 22.77 13.61 22.77H19.41C19.6753 22.77 19.9296 22.8753 20.1171 23.0629C20.3047 23.2504 20.41 23.5048 20.41 23.77V25.37C20.4085 25.5007 20.3813 25.6298 20.33 25.75C20.2513 25.9304 20.1211 26.0836 19.9556 26.1904C19.7902 26.2971 19.5969 26.3526 19.4 26.35Z" fill="#456DBB"/>
</svg>
