<svg width="33" height="32" viewBox="0 0 33 32" fill="none" xmlns="http://www.w3.org/2000/svg">
<path d="M29.4998 13.5898C28.7776 13.9796 27.9706 14.1857 27.1498 14.1898C26.267 14.2088 25.3949 13.9937 24.6222 13.5663C23.8495 13.1389 23.2038 12.5145 22.7506 11.7566C22.2975 10.9987 22.0532 10.1343 22.0425 9.25139C22.0319 8.36844 22.2552 7.4984 22.6898 6.72976C20.9686 6.33348 19.1707 6.42701 17.4998 6.99976C17.4398 6.83976 17.3798 6.67976 17.3098 6.52976C17.6972 6.58142 18.0909 6.55399 18.4673 6.44915C18.8438 6.3443 19.195 6.16421 19.4998 5.91976C21.1498 4.91976 21.9098 3.13976 21.6198 2.67976C21.3298 2.21976 19.4198 2.10976 17.7698 3.12976C16.7698 3.75976 16.3298 4.34976 16.2498 4.89976C15.6927 4.26832 15.012 3.7578 14.2498 3.39976C13.2498 2.95976 12.2998 3.29976 12.2498 3.82976L12.1998 4.20976C12.1998 4.73976 12.6898 5.20976 13.2498 5.49976C13.8677 5.79148 14.3986 6.23962 14.7898 6.79976C12.9513 6.30548 11.0044 6.39636 9.21985 7.05976C3.95985 9.05976 1.56985 15.6098 3.87985 21.6898C6.06985 27.3398 11.4998 30.5898 16.4998 29.4198C21.4998 30.5898 26.9298 27.3398 29.0798 21.6898C30.0935 19.1065 30.2409 16.264 29.4998 13.5898ZM20.2998 18.1498C19.8598 18.5798 18.2998 19.4098 17.8798 18.9798C17.4598 18.5498 18.2798 16.9798 18.7098 16.5698C18.9194 16.3589 19.2041 16.2399 19.5013 16.239C19.7986 16.2381 20.084 16.3552 20.2948 16.5648C20.5057 16.7743 20.6247 17.059 20.6256 17.3562C20.6265 17.6535 20.5094 17.9389 20.2998 18.1498ZM12.4398 16.5698C12.5431 16.4651 12.6661 16.3821 12.8017 16.3254C12.9373 16.2687 13.0829 16.2395 13.2298 16.2395C13.3768 16.2395 13.5224 16.2687 13.658 16.3254C13.7936 16.3821 13.9166 16.4651 14.0198 16.5698C14.4598 16.9998 15.2898 18.5698 14.8498 18.9798C14.4098 19.3898 12.8498 18.5798 12.4398 18.1498C12.2307 17.9412 12.1115 17.6591 12.1078 17.3638C12.104 17.0685 12.2161 16.7835 12.4198 16.5698H12.4398Z" fill="#456DBB"/>
</svg>
