<svg width="33" height="32" viewBox="0 0 33 32" fill="none" xmlns="http://www.w3.org/2000/svg">
<path d="M28.7096 17.1598C28.5596 15.9398 28.4296 14.7198 28.2396 13.5098C27.9414 11.4053 27.2637 9.37234 26.2396 7.50978C25.3705 5.93341 24.11 4.60749 22.5796 3.65978C20.6673 2.55832 18.4964 1.9854 16.2896 1.99978C15.6196 2.06978 14.9496 2.09978 14.2896 2.19978C12.2386 2.458 10.3513 3.45315 8.97964 4.99978C7.88928 6.28739 7.12141 7.81628 6.73964 9.45978C6.34249 11.0954 6.1709 12.7777 6.22964 14.4598C6.23568 14.5333 6.22222 14.6072 6.19062 14.6739C6.15902 14.7406 6.11039 14.7978 6.04964 14.8398C5.40996 15.2331 4.90308 15.8093 4.59464 16.494C4.28619 17.1786 4.19039 17.9401 4.31964 18.6798C4.40079 19.3609 4.67433 20.0049 5.10823 20.5362C5.54213 21.0675 6.11843 21.4642 6.76964 21.6798C7.01268 21.7569 7.23204 21.8947 7.40701 22.0802C7.58199 22.2657 7.70679 22.4927 7.76964 22.7398C8.48533 24.914 9.82412 26.83 11.6196 28.2498C12.4732 28.9337 13.4605 29.4311 14.518 29.7102C15.5756 29.9892 16.6798 30.0436 17.7596 29.8698C19.452 29.5872 21.0124 28.779 22.2196 27.5598C23.7059 26.1146 24.8061 24.3199 25.4196 22.3398C25.47 22.1669 25.5579 22.0073 25.6772 21.8725C25.7965 21.7376 25.9442 21.6308 26.1096 21.5598C26.7584 21.2603 27.3087 20.7827 27.6965 20.1825C28.0842 19.5823 28.2934 18.8843 28.2996 18.1698C28.2894 18.0433 28.2894 17.9162 28.2996 17.7898C28.2996 17.7298 28.3696 17.6398 28.3996 17.6398C28.7796 17.6298 28.7396 17.3898 28.7096 17.1598ZM20.0496 21.1598C19.7709 21.1518 19.5009 21.0613 19.2736 20.8998C19.0463 20.7383 18.8719 20.5131 18.7726 20.2525C18.6733 19.992 18.6535 19.7078 18.7157 19.436C18.7778 19.1642 18.9192 18.917 19.1218 18.7255C19.3245 18.534 19.5794 18.4069 19.8543 18.3602C20.1292 18.3136 20.4117 18.3495 20.6662 18.4634C20.9207 18.5773 21.1357 18.7641 21.2841 19.0002C21.4324 19.2363 21.5074 19.5111 21.4996 19.7898C21.4997 19.9784 21.462 20.165 21.3886 20.3388C21.3153 20.5125 21.2078 20.6697 21.0726 20.8012C20.9374 20.9327 20.7772 21.0357 20.6015 21.1041C20.4258 21.1726 20.2381 21.2051 20.0496 21.1998V21.1598ZM18.9996 24.7198C19.0443 24.6999 19.0924 24.689 19.1412 24.6878C19.1901 24.6865 19.2387 24.695 19.2842 24.7127C19.3298 24.7303 19.3714 24.7568 19.4067 24.7907C19.4419 24.8245 19.4701 24.865 19.4896 24.9098C19.5277 25.0016 19.5292 25.1045 19.4939 25.1975C19.4585 25.2904 19.3891 25.3664 19.2996 25.4098C18.4787 25.7703 17.5889 25.9472 16.6925 25.9282C15.7961 25.9092 14.9146 25.6947 14.1096 25.2998C14.0208 25.256 13.953 25.1788 13.9211 25.085C13.8892 24.9912 13.8959 24.8886 13.9396 24.7998C13.9834 24.7109 14.0607 24.6431 14.1544 24.6112C14.2482 24.5793 14.3508 24.586 14.4396 24.6298C15.1469 24.9772 15.9218 25.1653 16.7097 25.1809C17.4975 25.1964 18.2792 25.039 18.9996 24.7198ZM13.1496 21.1998C12.8708 21.1998 12.5982 21.1171 12.3663 20.9621C12.1344 20.8072 11.9537 20.587 11.847 20.3294C11.7403 20.0717 11.7123 19.7882 11.7667 19.5147C11.8211 19.2412 11.9554 18.9899 12.1526 18.7928C12.3498 18.5956 12.6011 18.4613 12.8746 18.4069C13.1481 18.3525 13.4316 18.3804 13.6892 18.4871C13.9469 18.5938 14.1671 18.7745 14.322 19.0064C14.4769 19.2383 14.5596 19.5109 14.5596 19.7898C14.5596 20.1637 14.4111 20.5224 14.1467 20.7868C13.8822 21.0512 13.5236 21.1998 13.1496 21.1998ZM25.9696 20.0798C26.0496 19.2398 25.8396 18.3898 25.6296 18.3998C25.1396 18.4498 20.0396 17.7398 19.9096 17.7098C18.9896 17.4698 18.0596 17.2698 17.1496 16.9898C15.23 16.4215 13.479 15.3915 12.0496 13.9898L11.9496 13.8998C11.8596 13.8998 11.8296 13.8198 11.7296 13.7798H11.5996H11.4096L11.1696 13.9098C10.5996 14.9098 10.0296 15.9098 9.44964 16.9098C9.08964 17.5198 8.69964 18.1198 8.29964 18.7098C8.23086 18.797 8.15383 18.8773 8.06964 18.9498C7.91595 19.466 7.83517 20.0012 7.82964 20.5398C7.49162 20.4964 7.16597 20.3847 6.87253 20.2114C6.57909 20.0381 6.32402 19.8069 6.12286 19.5318C5.92169 19.2567 5.77865 18.9436 5.70245 18.6114C5.62625 18.2792 5.61849 17.935 5.67964 17.5998C5.77995 17.0975 6.00716 16.6293 6.33964 16.2398C6.38964 16.5098 6.40964 16.7198 6.45964 16.9298C6.52852 17.2064 6.61879 17.4772 6.72964 17.7398C6.73969 17.8242 6.77348 17.9041 6.82709 17.9702C6.8807 18.0362 6.95193 18.0857 7.03253 18.113C7.11312 18.1402 7.19978 18.144 7.28246 18.124C7.36514 18.1039 7.44044 18.0609 7.49964 17.9998C7.75199 17.7992 7.97425 17.5635 8.15964 17.2998C8.56964 16.7098 8.95964 16.0998 9.33964 15.4698C9.98964 14.3798 10.3396 13.7598 10.9796 12.6598C11.0396 12.5598 11.2496 11.9298 11.4396 11.8698C11.6296 11.8098 11.8296 12.3098 12.0196 12.5198C13.4036 13.9607 15.1207 15.039 17.0196 15.6598C17.9196 15.9698 18.8496 16.1998 19.7696 16.4598C19.8896 16.4598 23.6996 16.8698 24.0996 16.9098C24.4996 16.9498 24.7696 16.6898 24.5796 16.2298C24.4208 15.8873 24.2439 15.5535 24.0496 15.2298C24.1129 15.2568 24.1732 15.2903 24.2296 15.3298C24.9196 15.7998 25.5996 16.3298 26.3096 16.7298C26.4827 16.8341 26.6266 16.9805 26.728 17.1553C26.8294 17.3301 26.885 17.5277 26.8896 17.7298C26.9544 18.1677 26.9035 18.6149 26.7421 19.0271C26.5808 19.4393 26.3145 19.8022 25.9696 20.0798Z" fill="#456DBB"/>
</svg>
